<svg width="40" height="26" viewBox="0 0 40 26" fill="none" xmlns="http://www.w3.org/2000/svg">
<path d="M2.51304 0.593994H37.513C37.7364 0.598285 37.9567 0.646599 38.1614 0.736084C38.366 0.825569 38.5511 0.95444 38.7059 1.11548C38.8607 1.27652 38.9822 1.46651 39.0636 1.67456C39.1449 1.88261 39.1845 2.10454 39.18 2.32788V24.0022C39.1845 24.2255 39.1449 24.4475 39.0636 24.6555C38.9822 24.8636 38.8607 25.0536 38.7059 25.2146C38.5511 25.3756 38.366 25.5045 38.1614 25.594C37.9567 25.6835 37.7364 25.7318 37.513 25.7361H2.51304C2.2897 25.7318 2.06941 25.6835 1.86473 25.594C1.66005 25.5045 1.47499 25.3756 1.32017 25.2146C1.16535 25.0536 1.04374 24.8636 0.962383 24.6555C0.881029 24.4475 0.841541 24.2255 0.84605 24.0022V2.32788C0.841541 2.10454 0.881029 1.88261 0.962383 1.67456C1.04374 1.46651 1.16535 1.27652 1.32017 1.11548C1.47499 0.95444 1.66005 0.825569 1.86473 0.736084C2.06941 0.646599 2.2897 0.598285 2.51304 0.593994Z" fill="url(#paint0_linear_0_1)"/>
<path d="M30.8181 17.8201L30.5662 16.5251H27.8322L27.3832 17.8201H25.1411L28.3481 9.75513C28.4227 9.55514 28.5594 9.38411 28.738 9.26733C28.9167 9.15056 29.1281 9.09424 29.3412 9.1062H31.0702L32.7921 17.821L30.8181 17.8201ZM29.5822 11.4758L28.4521 14.7371H30.2181L29.5822 11.4758ZM22.2952 11.5901C22.2952 12.5421 25.2952 12.7458 25.2952 14.9348C25.2952 17.0428 23.0802 17.8181 21.6132 17.8181C20.7794 17.8319 19.9521 17.6696 19.1852 17.342L19.5051 15.4519C20.3851 16.1719 23.0542 16.3771 23.0542 15.2341C23.0542 14.0911 20.0792 14.0639 20.0792 11.8879C20.0792 9.57594 22.6132 9.09985 23.6792 9.09985C24.3395 9.11678 24.9926 9.24091 25.6132 9.46704L25.3062 11.2761C24.3882 10.7641 22.2932 10.642 22.2932 11.594L22.2952 11.5901ZM15.7112 17.8201L17.0552 9.10474H19.2062L17.8622 17.8201H15.7112ZM10.5542 17.8201L8.68811 10.2581C9.01776 10.464 9.33227 10.6932 9.62915 10.9441C10.5262 11.7117 11.2087 12.6986 11.6101 13.8088L11.8531 15.0999L13.9042 9.1062H16.2191L12.7971 17.821L10.5542 17.8201ZM6.76013 9.34399L6.66016 9.31421L6.76013 9.34399ZM6.54016 9.27905L6.49219 9.26587L6.54016 9.27905ZM7.06921 9.44897L6.94116 9.40405L7.06921 9.44897ZM8.56018 10.1741C8.49351 10.1327 8.42677 10.0929 8.36011 10.0549C8.42411 10.0989 8.49011 10.137 8.55811 10.179L8.56018 10.1741ZM8.04614 9.88403C7.98814 9.85403 7.92822 9.82219 7.87122 9.79419C7.92622 9.82719 7.98519 9.85892 8.04419 9.88892L8.04614 9.88403ZM7.51111 9.6272L7.39319 9.57593L7.51111 9.6272Z" fill="#494CA3"/>
<path d="M11.6067 13.813L10.8827 9.89501C10.8446 9.65886 10.7179 9.44617 10.5283 9.30028C10.3388 9.1544 10.1007 9.08666 9.86267 9.11034H6.47266L6.43262 9.25732C7.60967 9.5747 8.7005 10.1522 9.62463 10.9473C10.5222 11.715 11.2051 12.7022 11.6067 13.813Z" fill="#FFC000"/>
<defs>
<linearGradient id="paint0_linear_0_1" x1="20.013" y1="25.7361" x2="20.013" y2="0.593994" gradientUnits="userSpaceOnUse">
<stop stop-color="#E59703"/>
<stop offset="0.231" stop-color="#E59703"/>
<stop offset="0.234" stop-color="white"/>
<stop offset="0.761" stop-color="white"/>
<stop offset="0.766" stop-color="#5457BB"/>
<stop offset="1" stop-color="#5457BB"/>
</linearGradient>
</defs>
</svg>